<?xml version="1.0" standalone="no"?>
<!DOCTYPE svg PUBLIC "-//W3C//DTD SVG 20010904//EN"
 "http://www.w3.org/TR/2001/REC-SVG-20010904/DTD/svg10.dtd">
<svg version="1.0" xmlns="http://www.w3.org/2000/svg"
 width="576.000000pt" height="576.000000pt" viewBox="0 0 576.000000 576.000000"
 preserveAspectRatio="xMidYMid meet">

<g transform="translate(0.000000,576.000000) scale(0.100000,-0.100000)"
fill="#000000" stroke="none">
<path d="M2585 5729 c-286 -51 -493 -109 -727 -203 -383 -154 -692 -358 -989
-655 -365 -366 -579 -726 -718 -1208 -44 -151 -87 -370 -97 -492 -7 -86 5
-123 52 -160 25 -20 39 -21 212 -21 l185 0 299 296 c165 162 314 304 331 315
43 26 121 25 165 -1 57 -35 62 -62 62 -318 0 -126 3 -244 6 -261 l7 -31 176 2
176 3 8 70 c38 352 277 693 610 870 102 55 241 101 352 117 l85 12 0 163 0
163 -290 0 c-197 0 -297 4 -314 12 -55 24 -77 99 -51 165 13 32 94 118 336
356 l319 314 0 206 c0 113 -4 217 -10 231 -12 33 -66 66 -105 65 -16 -1 -52
-5 -80 -10z m78 -166 c-7 -2 -19 -2 -25 0 -7 3 -2 5 12 5 14 0 19 -2 13 -5z
m-76 -9 c-3 -3 -12 -4 -19 -1 -8 3 -5 6 6 6 11 1 17 -2 13 -5z"/>
<path d="M3080 5732 c-14 -1 -36 -8 -49 -15 -44 -22 -51 -60 -51 -281 l0 -204
243 -238 c410 -404 415 -410 423 -449 9 -50 -2 -83 -41 -122 l-33 -33 -296 0
-296 0 0 -163 0 -163 81 -12 c159 -25 330 -92 462 -179 83 -55 220 -183 283
-264 118 -153 199 -356 229 -572 l6 -47 177 2 177 3 5 276 c5 259 6 278 25
299 49 54 149 68 211 29 18 -11 163 -153 321 -315 l289 -294 186 0 c103 0 198
4 212 10 39 14 66 66 66 125 0 79 -38 315 -71 443 -84 328 -232 660 -408 912
-271 390 -675 737 -1116 957 -276 138 -645 256 -898 285 -61 7 -123 12 -137
10z m68 -169 c-10 -2 -26 -2 -35 0 -10 3 -2 5 17 5 19 0 27 -2 18 -5z m59 -9
c-3 -3 -12 -4 -19 -1 -8 3 -5 6 6 6 11 1 17 -2 13 -5z"/>
<path d="M102 2784 c-57 -40 -63 -95 -31 -302 73 -480 260 -928 545 -1307 76
-102 238 -279 337 -369 303 -276 611 -458 1029 -610 292 -106 643 -166 736
-127 57 24 62 45 62 287 l0 217 -330 326 c-361 358 -361 358 -325 434 30 64
47 67 369 67 l286 0 0 160 c0 158 0 160 -22 164 -13 3 -63 12 -113 21 -237 44
-444 160 -622 349 -174 185 -262 379 -298 659 l-6 47 -180 0 -179 0 0 -269 c1
-308 -1 -319 -73 -352 -52 -23 -89 -24 -133 -3 -19 9 -168 153 -332 320 l-299
304 -199 0 c-165 0 -203 -3 -222 -16z"/>
<path d="M4036 2743 c-32 -282 -133 -489 -335 -690 -172 -172 -347 -263 -588
-308 -48 -9 -98 -18 -110 -21 -23 -4 -23 -6 -23 -164 l0 -160 295 0 294 0 35
-30 c38 -34 52 -82 36 -126 -6 -17 -149 -166 -334 -349 l-324 -320 -7 -68 c-4
-37 -6 -137 -3 -221 4 -173 12 -196 76 -223 91 -38 465 33 782 148 185 67 448
200 610 308 688 457 1129 1146 1250 1951 31 212 24 291 -29 320 -12 6 -103 10
-223 10 l-203 0 -305 -310 c-171 -174 -317 -314 -333 -320 -69 -24 -139 0
-177 62 -19 31 -20 51 -20 301 l0 267 -179 0 -179 0 -6 -57z"/>
</g>
</svg>
